:SAMPLES-PER-SECOND 30
:FULLY-SPECIFIED
:DEGREES
587
root  2.56205 38.8915 -10.0884 -27.9031 -80.2939 17.2968
RightUpLeg  -17.0439 8.46413 -8.49562
RightLeg  40.5536 1.99908 1.59209
RightFoot  -0.20565 -0.830013 8.48779
RightToes  5.47152e-009 0 -3.6325e-017
Spine  6.10009 -1.57918 -3.7018
Spine1  14.1162 -2.08949 -1.93501
HEad  -13.5462 0.790112 -2.03639
LeftShoulder1  -0.128224 3.8729 -28.5836
LeftArm  -16.7124 5.18254 -38.5759
LeftForeArm  91.3426 -78.3432 -110.397
LeftHand  -0.0415088 5.58432 -3.7764
RightShoulder  -0.499598 -4.99841 26.5966
RightArm  -18.5873 -14.0807 39.8323
RightForeArm  114.58 69.98 146.029
RightHand  -0.0268307 -5.16851 -1.53207
LeftUpLeg  3.52113 5.19068 -8.66956
LeftLeg  16.9691 -0.0557993 -0.569842
LeftFoot  -10.4166 -0.0272427 11.0125
LeftToes  -4.29285e-010 1.49941e-010 2.15559e-012
588
root  1.39353 38.9375 -9.91714 -26.7401 -79.8313 16.4569
RightUpLeg  -16.1058 9.67884 -8.66257
RightLeg  26.4984 1.79612 0.894925
RightFoot  0.204327 -0.844815 8.35168
RightToes  5.47152e-009 0 -3.6325e-017
Spine  4.94554 -1.76343 -3.74769
Spine1  14.6886 -2.23034 -1.37413
HEad  -12.9295 0.0665842 -1.00397
LeftShoulder1  -0.0925925 3.77077 -28.5129
LeftArm  -16.5319 4.71512 -38.8931
LeftForeArm  90.8298 -78.4116 -109.616
LeftHand  -0.0514096 5.77793 -4.28476
RightShoulder  -0.532474 -5.08256 26.9331
RightArm  -18.9996 -14.6307 39.264
RightForeArm  114.973 69.5373 146.859
RightHand  -0.0288701 -4.99956 -1.44676
LeftUpLeg  5.84378 5.55814 -8.34771
LeftLeg  15.7559 -0.812049 -0.895144
LeftFoot  -11.6942 0.104895 10.9314
LeftToes  -4.29285e-010 1.49941e-010 2.15559e-012
589
root  0.213686 38.9366 -9.71929 -26.7963 -79.3337 16.9688
RightUpLeg  -14.4555 5.96283 -7.95567
RightLeg  11.8184 5.63441 0.218618
RightFoot  -0.0860389 -0.876898 8.86542
RightToes  5.47152e-009 0 -3.6325e-017
Spine  3.92712 -2.04995 -3.58158
Spine1  14.8684 -2.40538 -1.08826
HEad  -12.2697 -0.578652 -0.205728
LeftShoulder1  -0.127474 3.86954 -28.7057
LeftArm  -16.0539 4.47216 -38.7
LeftForeArm  89.5188 -78.3943 -109.251
LeftHand  -0.0380527 5.53187 -3.39171
RightShoulder  -0.527186 -5.06886 26.8753
RightArm  -19.3324 -15.2498 39.3207
RightForeArm  115.763 69.0981 147.693
RightHand  -0.0304779 -4.92479 -1.61666
LeftUpLeg  8.18422 5.8615 -8.23417
LeftLeg  14.3075 -1.5936 -1.30166
LeftFoot  -12.8413 0.221207 10.9984
LeftToes  -4.29285e-010 1.49941e-010 2.15559e-012
590
root  -1.03075 38.8702 -9.51833 -26.8425 -79.0664 17.2769
RightUpLeg  -12.6228 -5.71813 -4.73541
RightLeg  -0.553056 15.8245 -1.65785
RightFoot  -1.18553 -1.04146 11.7102
RightToes  5.47152e-009 0 -3.6325e-017
Spine  2.43484 -2.08932 -3.34056
Spine1  15.7825 -2.46363 -0.523398
HEad  -11.702 -1.00114 -0.343248
LeftShoulder1  -0.0825265 3.74149 -28.5628
LeftArm  -16.0344 4.27184 -38.8629
LeftForeArm  89.0817 -78.4476 -108.602
LeftHand  -0.0509792 5.79932 -4.18405
RightShoulder  -0.49711 -4.99236 26.5519
RightArm  -19.6986 -15.6603 39.3319
RightForeArm  116.368 68.6671 148.459
RightHand  -0.0393934 -5.32247 -1.5925
LeftUpLeg  10.6466 6.04589 -8.08203
LeftLeg  13.2446 -2.33451 -1.40432
LeftFoot  -14.3625 0.362524 10.4358
LeftToes  -4.29285e-010 1.49941e-010 2.15559e-012
591
root  -2.35249 38.6434 -9.35861 -29.0405 -78.7316 19.1696
RightUpLeg  -11.8973 -6.9594 -4.80367
RightLeg  -4.93308 11.4621 -0.277904
RightFoot  -3.00142 -1.01021 13.5452
RightToes  5.47152e-009 0 -3.6325e-017
Spine  1.84382 -2.02228 -3.28324
Spine1  16.0739 -2.32387 -0.641076
HEad  -10.9341 -1.16596 -0.284387
LeftShoulder1  -0.0720827 3.71248 -28.3886
LeftArm  -15.6657 4.15604 -38.7628
LeftForeArm  88.4589 -78.4904 -107.955
LeftHand  -0.0571895 5.904 -4.52198
RightShoulder  -0.565671 -5.17663 27.0551
RightArm  -19.6044 -15.592 38.7708
RightForeArm  116.497 68.4732 148.777
RightHand  -0.0392987 -5.12872 -1.38467
LeftUpLeg  13.2344 6.49865 -8.02905
LeftLeg  13.5384 -2.91853 -1.52332
LeftFoot  -16.602 0.565676 10.1013
LeftToes  -4.29285e-010 1.49941e-010 2.15559e-012
592
root  -3.63479 38.4314 -9.18085 -28.2297 -79.2208 17.7299
RightUpLeg  -11.5313 -5.97644 -3.46414
RightLeg  -2.13344 2.316 0.489782
RightFoot  -1.47888 -0.887656 10.0296
RightToes  5.47152e-009 0 -3.6325e-017
Spine  2.44532 -1.9406 -1.86601
Spine1  15.8584 -2.27347 -0.651566
HEad  -9.87596 -1.09312 -0.659766
LeftShoulder1  -0.116061 3.83673 -28.6926
LeftArm  -15.6424 4.3928 -38.3722
LeftForeArm  88.0255 -78.5058 -107.632
LeftHand  -0.0711939 6.23664 -4.39239
RightShoulder  -0.542183 -5.11216 26.9245
RightArm  -19.3636 -15.2528 38.9563
RightForeArm  116.341 68.6663 148.453
RightHand  -0.0364998 -5.12787 -1.59239
LeftUpLeg  15.9403 6.81585 -7.38471
LeftLeg  13.9069 -2.92131 -1.0939
LeftFoot  -18.6628 0.737244 9.74695
LeftToes  -4.29285e-010 1.49941e-010 2.15559e-012
593
root  -5.01152 38.1493 -8.91573 -25.5118 -79.3866 14.1908
RightUpLeg  -11.4343 -7.02453 -2.2673
RightLeg  4.28394 -4.69866 1.53129
RightFoot  0.140612 -0.780493 7.973
RightToes  5.47152e-009 0 -3.6325e-017
Spine  2.75612 -2.43501 0.379923
Spine1  16.0745 -2.53553 -1.52818
HEad  -9.28816 -0.665328 -1.37066
LeftShoulder1  -0.176206 4.00723 -28.8525
LeftArm  -15.881 5.20356 -38.0623
LeftForeArm  88.5807 -78.4457 -108.417
LeftHand  -0.0519651 5.81495 -4.24119
RightShoulder  -0.541693 -5.11102 26.9175
RightArm  -18.6783 -14.4706 39.1247
RightForeArm  115.916 69.1799 147.577
RightHand  -0.0309587 -4.99445 -1.28973
LeftUpLeg  18.7409 6.40079 -6.95652
LeftLeg  14.824 -2.28537 -0.210873
LeftFoot  -20.9098 0.90277 9.24889
LeftToes  -4.29285e-010 1.49941e-010 2.15559e-012
594
root  -6.34676 38.1421 -8.67689 -14.8797 -78.4659 3.42679
RightUpLeg  -12.3875 -9.85919 -0.0855608
RightLeg  10.0063 -3.69263 1.47811
RightFoot  3.43256 0.146959 -0.882142
RightToes  5.47152e-009 0 -3.6325e-017
Spine  1.8087 -3.15929 3.57794
Spine1  17.0009 -3.2846 -1.09904
HEad  -8.24281 -0.780944 -2.4854
LeftShoulder1  -0.137544 3.89609 -28.9242
LeftArm  -15.8117 5.86313 -38.1102
LeftForeArm  87.9132 -78.4259 -108.322
LeftHand  -0.0607984 6.08975 -3.66968
RightShoulder  -0.546442 -5.13108 26.8027
RightArm  -18.3717 -14.8828 38.7229
RightForeArm  116.604 69.0605 147.849
RightHand  -0.0287455 -5.32528 -0.722162
LeftUpLeg  21.2215 4.6811 -5.47075
LeftLeg  14.3616 -2.27763 0.306383
LeftFoot  -21.4382 0.853732 8.19878
LeftToes  -4.29285e-010 1.49941e-010 2.15559e-012
